<?xml version="1.0" encoding="UTF-8"?>
<svg width="171px" height="117px" viewBox="0 0 171 117" version="1.1" xmlns="http://www.w3.org/2000/svg" xmlns:xlink="http://www.w3.org/1999/xlink">
    <!-- Generator: Sketch 52.6 (67491) - http://www.bohemiancoding.com/sketch -->
    <title>classy</title>
    <desc>Created with Sketch.</desc>
    <g id="Page-1" stroke="none" stroke-width="1" fill="none" fill-rule="evenodd">
        <g id="classy">
            <rect id="Rectangle" fill="#D8D8D8" x="0" y="0" width="171" height="117"></rect>
            <path d="M19,35.0114138 C30.3699972,39.2402722 73.5140186,8.36976285 70.1761028,16.486997 C61.0381637,38.7088847 57.4276606,65.2688296 59.3445934,96.1668319 C65.4527794,100.731568 78.8655509,102.322295 99.5829078,100.939011 C173.381306,96.011544 158.712251,13 124.889365,13 C86.5464146,13 77.2331936,71.3345324 84.2063637,90.9547556" id="e10" stroke="#000000" stroke-width="8" stroke-linecap="round" stroke-linejoin="round"></path>
            <path d="M109.406993,24.469735 C109.406993,32.1038865 105.477284,38.4047322 102.46299,40.8516156 C95.101951,46.8270135 88.7835024,47.6378095 83.5076444,43.2840037 C85.4116828,20.4280012 91.7301314,9 102.46299,9 C121.713013,9 117.545008,52.3922485 109.406993,71.5402456 C104.925887,82.0838754 96.3680736,96.4072278 89.3896795,100.765642 C76.951387,108.534082 61.0977706,108.534082 54,103.166359" id="e9" stroke="#000000" stroke-width="8" stroke-linecap="round" stroke-linejoin="round"></path>
            <path d="M51.9816087,85.0134119 C58.2674932,76.1435399 124.453571,47.5241399 122.107825,28.7358287 C118.370031,-1.20213161 45.5930959,12.8647147 51.9816087,40.8125633 C53.9127067,49.2605442 68.685841,50.8299709 83.05274,63.1558387 C96.3077718,74.5277965 109.604653,96.9268389 103.236661,99.2998625 C78.0654692,108.679873 61.3175057,101.6444 48,94.3547597" id="e8" stroke="#000000" stroke-width="8" stroke-linecap="round" stroke-linejoin="round"></path>
            <path d="M55.6728157,11.6729769 C58.6600879,18.0549489 107.270044,22.747225 121.076252,11.6729769 C133.296727,1.8706788 72.2910555,102.3469 49,105.180366" id="e7" stroke="#000000" stroke-width="8" stroke-linecap="round" stroke-linejoin="round"></path>
            <path d="M107.856567,14.3023423 C103.626776,-4.01357312 -1.98678407,92.6369122 65.439462,103.477181 C71.6502771,104.475708 113.587231,103.932832 123.990093,83.7116703 C144.30755,44.2184449 65.439462,75.3785135 56.2050817,88.3117029" id="e6" stroke="#000000" stroke-width="8" stroke-linecap="round" stroke-linejoin="round"></path>
            <path d="M135.682006,9 C127.921644,9 82.6951682,15.8056427 69.7465535,15.8056427 C63.0899501,15.8056427 61.8103477,32.8330566 51.784231,57.0457109 C49.8753387,61.6556064 91.2338701,49.9250614 101.493975,60.3293739 C116.107016,75.1478054 87.3975034,132.466443 35,92.6597032" id="e5" stroke="#000000" stroke-width="8" stroke-linecap="round" stroke-linejoin="round"></path>
            <path d="M110.938811,7 C108.900052,21.5843953 69.3061042,54.7309412 53.927856,62.1971062 C45.2158474,66.4268008 100.324954,53.9812262 115.934354,64.1934989 C119.054568,66.2348635 102.820205,83.0350286 117.623945,108.058121" id="e4" stroke="#000000" stroke-width="8" stroke-linecap="round" stroke-linejoin="round"></path>
            <path d="M44.8973234,28.5626905 C65.7566381,14.6628233 126.845929,14.2965736 121.619926,28.5626905 C114.509704,47.9724148 52.9969078,54.9753278 73.385557,54.9753278 C77.0450925,54.9753278 135.137574,65.4381809 130.876872,78.8796315 C126.942911,91.290296 15.6292698,109.005305 44.8973234,87.4418544" id="e3" stroke="#000000" stroke-width="8" stroke-linecap="round" stroke-linejoin="round"></path>
            <path d="M51.7712396,33.3849807 C69.2352641,2.50437271 110.620381,19.398033 111.411045,33.3849807 C113.144091,64.0427709 72.1150277,95.3862054 53.4772008,98.3436095 C42.5927305,100.07073 46.2085358,73.8149431 58.4954814,79.6666607 C64.6218243,82.5843613 104.647008,101.645111 124.434054,96.7025302" id="e2" stroke="#000000" stroke-width="8" stroke-linecap="round" stroke-linejoin="round"></path>
            <path d="M53,34.6662053 C67.4263304,41.3661874 87.7135618,27.9662231 114.590591,12.0795413 C119.599531,9.11881823 119.179506,89.7122469 96.7756066,103.498832" id="e1" stroke="#000000" stroke-width="8" stroke-linecap="round" stroke-linejoin="round"></path>
            <path d="M44.2111567,64.3466239 C52.3587197,14.9269557 126.784026,-13.9075671 126.784026,54.0514686 C126.784026,99.9984007 39.1490089,122.68274 44.2111567,75.0665571" id="e0" stroke="#000000" stroke-width="8" stroke-linecap="round" stroke-linejoin="round"></path>
        </g>
    </g>
</svg>