<?xml version="1.0" encoding="UTF-8"?>
<svg width="171px" height="117px" viewBox="0 0 171 117" version="1.1" xmlns="http://www.w3.org/2000/svg" xmlns:xlink="http://www.w3.org/1999/xlink">
    <!-- Generator: Sketch 52.6 (67491) - http://www.bohemiancoding.com/sketch -->
    <title>classy2</title>
    <desc>Created with Sketch.</desc>
    <g id="Page-1" stroke="none" stroke-width="1" fill="none" fill-rule="evenodd">
        <g id="classy2">
            <rect id="Rectangle" fill="#D8D8D8" x="0" y="0" width="171" height="117"></rect>
            <path d="M112.532715,21.8261656 C114.628754,22.7626937 116.156164,24.2901036 117.11499,26.408441 C118.073817,28.5267784 118.553223,31.659641 118.553223,35.8071227 C118.553223,42.09524 117.293388,48.8738181 114.773682,56.1430602 C112.253975,63.4123022 108.730898,70.2354762 104.204346,76.6127867 C99.6777931,82.9900972 94.4935188,88.2524144 88.6513672,92.3998961 C82.0956703,97.0379401 76.7218634,99.3569273 72.5297852,99.3569273 C69.274235,99.3569273 66.2194153,98.3758174 63.3652344,96.413568 C60.5110534,94.4513186 58.2366621,91.6529253 56.5419922,88.0183043 C54.8473223,84.3836833 54,80.135923 54,75.2748961 C54,68.4962164 55.8618792,61.37202 59.5856934,53.9020934 C63.3095076,46.4321667 68.0366738,39.6870356 73.767334,33.6664977 C79.4979941,27.6459597 85.4738458,23.0079853 91.6950684,19.7524352 C97.9162909,16.496885 103.256651,15.3596894 107.716309,16.3408141 C110.615086,16.9651661 112.220539,18.7935984 112.532715,21.8261656 Z" id="e0" stroke="#000000" stroke-width="3"></path>
            <path d="M77.0307617,37.8779297 L77.0307617,32.3925781 C78.6362385,30.9654877 80.2639891,29.5830145 81.9140625,28.2451172 C83.5641359,26.9072199 85.4037171,25.4578529 87.4328613,23.8969727 C89.4620056,22.3360925 91.5580133,20.8421295 93.7209473,19.4150391 C95.8838813,17.9879486 98.3478052,16.5162836 101.112793,15 C103.565605,18.5677262 104.791992,21.9793131 104.791992,25.2348633 C104.791992,27.0187264 104.412927,29.0032443 103.654785,31.1884766 C102.896643,33.3737088 101.859788,35.8710797 100.544189,38.6806641 C99.2285904,41.4902484 97.5896908,45.0133252 95.6274414,49.25 C90.3650453,60.8897066 86.4294564,70.4889759 83.8205566,78.0480957 C81.2116569,85.6072155 79.9072266,90.746894 79.9072266,93.4672852 C79.9072266,93.690268 80.0633122,94.5598883 80.3754883,96.0761719 C80.6876643,97.5924555 80.84375,98.7296512 80.84375,99.487793 C80.84375,100.781094 80.4758338,101.47233 79.7399902,101.561523 C79.0041467,101.650717 77.9672918,101.383141 76.6293945,100.758789 C73.1954581,99.0641191 70.8987688,97.4586664 69.7392578,95.9423828 C68.5797468,94.4260992 68,92.4638792 68,90.0556641 C68,85.7297961 69.5831547,79.0181119 72.7495117,69.9204102 C74.3549885,65.3269627 76.2280166,60.7558821 78.3686523,56.2070312 C80.509288,51.6581804 82.8840202,47.0536529 85.4929199,42.3933105 C88.1018197,37.7329682 90.5657436,33.4406121 92.8847656,29.5161133 C87.8453524,31.6121524 82.5607373,34.3993967 77.0307617,37.8779297 Z" id="e1" stroke="#000000" stroke-width="3"></path>
            <path d="M73.1352539,41.6206055 C77.8178945,41.8435884 81.1625876,42.1557597 83.1694336,42.5571289 C85.1762796,42.9584981 86.1796875,43.7612244 86.1796875,44.965332 C86.1796875,45.500491 86.0124528,45.8684072 85.6779785,46.0690918 C85.3435042,46.2697764 84.7972043,46.4258621 84.0390625,46.5373535 C83.2809207,46.648845 82.3890025,46.7937817 81.3632812,46.972168 C79.8469976,47.2397474 77.3496268,47.7637494 73.8710938,48.5441895 C70.3925607,49.3246296 68.4749367,49.7148438 68.1181641,49.7148438 C66.3788976,49.7148438 65.5092773,48.622244 65.5092773,46.4370117 C65.5092773,44.4747623 65.9217895,41.9550935 66.7468262,38.8779297 C67.5718628,35.8007659 68.6867606,32.9354788 70.0915527,30.2819824 C71.4963449,27.6284861 72.9791589,25.744309 74.5400391,24.6293945 C76.3684987,23.3360938 79.2114879,22.0316635 83.0690918,20.7160645 C86.9266957,19.4004654 91.2524988,18.2855677 96.0466309,17.3713379 C100.840763,16.4571081 105.222311,16 109.191406,16 C111.198252,16 112.681066,16.2787244 113.639893,16.8361816 C114.598719,17.3936389 115.278807,18.1517693 115.680176,19.1105957 C116.081545,20.0694221 116.750484,22.0204931 117.687012,24.9638672 C118.578943,27.6842584 119.024902,30.783674 119.024902,34.262207 C119.024902,38.4988819 118.043792,42.1557463 116.081543,45.2329102 C114.119294,48.310074 111.398943,51.1419142 107.92041,53.7285156 C104.441877,56.3151171 98.3656846,60.3175999 89.6916504,65.736084 C81.0176161,71.1545681 74.272485,75.4915202 69.4560547,78.7470703 C69.0100889,79.0592464 68.0958728,79.6501421 66.7133789,80.5197754 C65.330885,81.3894086 64.1044975,82.2924758 63.0341797,83.2290039 C61.9638618,84.165532 60.8712621,85.3696215 59.7563477,86.8413086 C65.732289,86.2615531 75.1866215,84.6338024 88.1196289,81.9580078 C91.6427585,81.199866 95.0654945,80.3636927 98.3879395,79.4494629 C101.710384,78.5352331 103.706051,78.078125 104.375,78.078125 C105.489914,78.078125 106.047363,78.6355739 106.047363,79.7504883 C106.047363,80.7762096 105.813235,82.036044 105.344971,83.5300293 C104.876707,85.0240146 104.196619,86.5402755 103.304688,88.0788574 C102.412756,89.6174393 101.364752,90.9441676 100.160645,92.059082 C94.2738963,97.544461 82.9019398,100.287109 66.0444336,100.287109 C61.673969,100.287109 58.752937,99.5958728 57.28125,98.2133789 C56.3893185,97.4106405 55.4528044,95.6045062 54.4716797,92.7949219 C53.490555,89.9853375 53,87.9116278 53,86.5737305 C53,84.2547085 54.1371957,81.4117193 56.4116211,78.0446777 C58.6860465,74.6776362 61.8077601,71.2214533 65.7768555,67.6760254 C69.7459508,64.1305975 74.1163498,60.975437 78.8881836,58.2104492 C93.4266677,49.9154859 101.14176,45.455895 102.033691,44.831543 C105.289242,42.6017141 107.842357,40.3496207 109.693115,38.0751953 C111.543873,35.8007699 112.469238,33.9723376 112.469238,32.5898438 C112.469238,31.3411396 111.967534,30.3711786 110.964111,29.6799316 C109.960688,28.9886847 108.544768,28.6430664 106.716309,28.6430664 C103.817531,28.6430664 100.327901,29.1670683 96.2473145,30.2150879 C92.1667276,31.2631075 88.0416061,32.7793683 83.8718262,34.763916 C79.7020462,36.7484637 76.1232246,39.034004 73.1352539,41.6206055 Z" id="e2" stroke="#000000" stroke-width="3"></path>
            <path d="M71.6171875,38.0751953 C70.3238868,37.3170535 69.4096706,36.4920292 68.8745117,35.6000977 C68.3393528,34.7081661 68.0717773,33.2365011 68.0717773,31.1850586 C68.0717773,28.3308777 69.5657403,25.744315 72.5537109,23.425293 C75.5416816,21.106271 79.7559949,19.2889877 85.1967773,17.9733887 C90.6375598,16.6577896 96.7249012,16 103.458984,16 C110.639033,16 116.035138,17.3155793 119.647461,19.9467773 C123.259784,22.5779754 125.065918,26.4578194 125.065918,31.5864258 C125.065918,34.618993 124.38583,37.3058965 123.025635,39.6472168 C121.665439,41.9885371 119.424495,44.1402897 116.302734,46.1025391 C112.824201,48.2431748 101.140073,51.3648883 81.25,55.4677734 C87.2705379,56.0029324 92.3767694,56.8279567 96.5688477,57.9428711 C100.760926,59.0577855 104.09447,60.7970259 106.56958,63.1606445 C109.04469,65.5242631 110.282227,68.7128706 110.282227,72.7265625 C110.282227,77.0970271 108.375751,81.4451281 104.562744,85.7709961 C100.749737,90.0968641 95.4316747,93.6533878 88.6083984,96.4406738 C81.7851221,99.2279599 74.2038177,100.621582 65.8642578,100.621582 C59.8883165,100.621582 55.250342,99.6962169 51.9501953,97.845459 C48.6500486,95.994701 47,93.6422669 47,90.7880859 C47,89.1380126 47.5351509,87.3876232 48.6054688,85.5368652 C49.6757866,83.6861073 50.94677,82.0918036 52.418457,80.7539062 C53.8901441,79.4160089 55.1388295,78.7470703 56.1645508,78.7470703 C56.7889029,78.7470703 57.1010742,78.9700499 57.1010742,79.4160156 C57.1010742,79.7281917 56.8780947,80.3302364 56.4321289,81.222168 C55.9861631,81.6681337 55.7631836,82.1586887 55.7631836,82.6938477 C55.7631836,83.7641655 56.8000385,84.6783816 58.8737793,85.4365234 C60.9475201,86.1946652 63.6121256,86.5737305 66.8676758,86.5737305 C71.3273335,86.5737305 75.6531366,86.0720265 79.8452148,85.0686035 C84.0372931,84.0651805 87.7944984,82.7496012 91.1169434,81.1218262 C94.4393884,79.4940511 97.0705469,77.7659597 99.010498,75.9375 C100.950449,74.1090403 101.92041,72.4366938 101.92041,70.9204102 C101.92041,67.8432463 99.9470412,65.7472386 96.0002441,64.6323242 C92.0534471,63.5174098 86.0887443,62.9599609 78.105957,62.9599609 C75.3855658,62.9599609 72.7655562,63.1940895 70.2458496,63.6623535 C67.726143,64.1306176 66.5109045,64.3647461 66.6000977,64.3647461 C65.931149,64.3647461 65.5966797,63.8072972 65.5966797,62.6923828 C65.5966797,60.9531163 66.0760857,58.7233209 67.0349121,56.0029297 C67.9937385,53.2825385 69.1197852,51.4987022 70.4130859,50.6513672 C71.2158243,50.1162083 74.3263889,49.3803758 79.744873,48.4438477 C85.1633572,47.5073195 89.8236296,46.6265503 93.7258301,45.8015137 C97.6280306,44.976477 102.277154,43.5828549 107.67334,41.6206055 C111.06268,40.3273047 113.604646,38.8221928 115.299316,37.1052246 C116.993986,35.3882564 117.841309,33.8385486 117.841309,32.4560547 C117.841309,28.9775217 113.537803,27.2382812 104.930664,27.2382812 C100.738586,27.2382812 96.6580602,27.4947077 92.6889648,28.0075684 C88.7198695,28.520429 85.6093049,29.1447717 83.3571777,29.8806152 C81.1050506,30.6164588 79.9790039,31.3188443 79.9790039,31.987793 C79.9790039,32.5675485 80.2131324,33.0358055 80.6813965,33.3925781 C81.1496605,33.7493507 81.6179176,34.0169262 82.0861816,34.1953125 C82.5544457,34.3736988 83.3237251,34.6412743 84.394043,34.9980469 C84.6616224,35.08724 84.9291979,35.2767726 85.1967773,35.5666504 C85.4643568,35.8565281 85.5981445,36.1798485 85.5981445,36.5366211 C85.5981445,37.7853253 80.9378721,38.2981782 71.6171875,38.0751953 Z" id="e3" stroke="#000000" stroke-width="3"></path>
            <path d="M106.983887,75.1381836 L92.8691406,78.1484375 C91.5758399,81.5823739 90.7062197,85.417622 90.2602539,89.6542969 C91.4643615,90.7692113 92.0664062,91.906407 92.0664062,93.065918 C92.0664062,94.0916392 90.4721025,95.674794 87.2834473,97.8154297 C84.094792,99.9560654 81.9876353,101.026367 80.9619141,101.026367 C78.8658749,101.026367 77.8178711,99.4209145 77.8178711,96.2099609 C77.8178711,90.7691785 78.5091077,85.4845634 79.8916016,80.355957 C78.0631419,80.355957 75.588069,80.5343407 72.4663086,80.8911133 C69.3445482,81.2478859 67.2039446,81.4262695 66.0444336,81.4262695 C63.3240424,81.4262695 61.1945878,81.20329 59.6560059,80.7573242 C58.1174239,80.3113584 56.9467814,79.4863341 56.144043,78.2822266 C55.3859012,76.9443292 54.6723666,75.0713011 54.003418,72.6630859 C53.3344693,70.2548708 53,68.4710344 53,67.3115234 C53,66.3303987 53.6243427,64.5242645 54.8730469,61.8930664 C56.121751,59.2618684 58.0059282,56.1958997 60.5256348,52.6950684 C63.0453414,49.1942371 65.9329264,45.9052888 69.1884766,42.828125 C72.6670096,39.5279783 76.8701739,36.1721362 81.7980957,32.760498 C86.7260175,29.3488599 91.4643327,26.360934 96.0131836,23.7966309 C100.562034,21.2323277 104.64256,19.125171 108.254883,17.4750977 C111.867206,15.8250243 114.007809,15 114.676758,15 C116.86199,15 117.95459,16.2263875 117.95459,18.6791992 C117.95459,19.125165 117.508631,20.3961484 116.616699,22.4921875 C118.04379,23.8300848 118.757324,25.0341743 118.757324,26.1044922 C118.757324,27.6207758 118.556643,29.003249 118.155273,30.2519531 C117.753904,31.5006573 117.207604,32.6712999 116.516357,33.763916 C115.82511,34.8565322 115.033533,36.0940686 114.141602,37.4765625 C112.223949,40.5091297 110.785731,42.7612231 109.826904,44.2329102 C108.868078,45.7045972 107.574797,47.7114131 105.947021,50.253418 C104.319246,52.7954229 102.981369,54.9806224 101.93335,56.809082 C100.88533,58.6375417 99.7815813,60.8673371 98.6220703,63.4985352 C105.66833,62.2944276 109.548174,61.6923828 110.261719,61.6923828 C112.268565,61.6923828 113.271973,62.4728112 113.271973,64.0336914 C113.271973,66.085134 111.175965,69.7865943 106.983887,75.1381836 Z" id="e4" stroke="#000000" stroke-width="3"></path>
            <path d="M87.9326172,17 C95.6032285,17.3567726 101.489888,17.5351562 105.592773,17.5351562 C111.613311,17.5351562 117.366184,17.4013685 122.851562,17.1337891 C120.889313,21.2812707 119.027434,24.7263046 117.265869,27.4689941 C115.504304,30.2116836 114.266768,31.7390935 113.553223,32.0512695 C112.393712,32.4080421 108.045611,32.5864258 100.508789,32.5864258 C93.551723,32.5864258 88.5792793,32.5418299 85.5913086,32.4526367 C80.596492,36.6893115 76.5828602,41.9962246 73.550293,48.3735352 C81.8898529,45.5193542 88.13328,44.0922852 92.2807617,44.0922852 C97.6769476,44.0922852 101.880112,45.630844 104.890381,48.7080078 C107.90065,51.7851716 109.405762,56.2224645 109.405762,62.0200195 C109.405762,69.3784548 107.008732,75.9563512 102.2146,81.7539062 C97.4204676,87.5514613 91.3108281,92.044499 83.885498,95.2331543 C76.460168,98.4218096 68.8900125,100.016113 61.1748047,100.016113 C56.7597435,100.016113 53.626881,99.3248767 51.776123,97.9423828 C49.9253651,96.5598889 49,94.0402201 49,90.3833008 C49,88.2872617 49.4013632,86.5591702 50.2041016,85.1989746 C51.00684,83.838779 52.3447172,82.5566466 54.2177734,81.3525391 C58.8112209,78.3645684 63.605281,76.8706055 68.6000977,76.8706055 C69.1352566,76.8706055 69.402832,77.0489891 69.402832,77.4057617 C69.402832,77.584148 69.2355974,77.7625317 68.901123,77.940918 C68.5666487,78.1193043 68.3771161,78.2084961 68.3325195,78.2084961 C62.6687542,80.3045352 59.8369141,81.9545838 59.8369141,83.1586914 C59.8369141,84.3182024 61.7099422,84.8979492 65.4560547,84.8979492 C70.9414337,84.8979492 76.6608589,83.526625 82.614502,80.7839355 C88.568145,78.0412461 93.5628867,74.7968937 97.598877,71.0507812 C101.634867,67.3046688 103.652832,64.2498491 103.652832,61.8862305 C103.652832,60.1023674 102.816659,58.6975963 101.144287,57.671875 C99.4719155,56.6461537 97.0748854,56.1333008 93.953125,56.1333008 C90.9205578,56.1333008 88.1667604,56.3897273 85.6916504,56.9025879 C83.2165404,57.4154485 80.4181471,58.1066851 77.2963867,58.9763184 C74.1746263,59.8459516 72.2347043,60.2807617 71.4765625,60.2807617 C70.0048755,60.2807617 69.0014675,59.634121 68.4663086,58.3408203 C67.9311497,57.2705025 67.4071477,56.2113496 66.8942871,55.1633301 C66.3814265,54.1153105 65.9577653,53.0227108 65.623291,51.885498 C65.2888167,50.7482853 65.0992841,49.8006223 65.0546875,49.0424805 C67.7304821,39.4096198 75.3563824,28.7288998 87.9326172,17 Z" id="e5" stroke="#000000" stroke-width="3"></path>
            <path d="M68.2674117,60.2606542 C73.0316307,55.1867854 77.2953969,51.4139845 81.0588379,48.9421387 C84.8272487,46.4670286 88.7851355,45.2294922 92.9326172,45.2294922 C97.2584852,45.2294922 100.670072,46.5339225 103.16748,49.1428223 C105.664889,51.751722 106.913574,55.3305437 106.913574,59.8793945 C106.913574,64.9634043 105.152036,70.5936377 101.628906,76.7702637 C98.1057767,82.9468896 93.6684838,88.1646109 88.3168945,92.423584 C82.9653053,96.6825571 77.7921799,98.8120117 72.7973633,98.8120117 C69.7201995,98.8120117 66.7099757,97.6079222 63.7666016,95.199707 C60.8232275,92.7914919 58.4596443,89.6809273 56.6757812,85.8679199 C54.8919182,82.0549126 54,78.1416216 54,74.1279297 C54,68.6871473 55.951071,62.4102732 59.8532715,55.2971191 C63.755472,48.1839651 69.4080033,41.2047055 76.8110352,34.3591309 C84.214067,27.5135563 92.8879711,21.7272372 102.833008,17 L109.790039,17.4013672 C112.64422,17.5797535 114.572993,17.7581371 115.576416,17.9365234 C116.579839,18.1149097 117.081543,18.493975 117.081543,19.0737305 C117.081543,19.5642928 115.007833,20.9579149 110.860352,23.2546387 C106.71287,25.5513624 103.256687,27.5358803 100.491699,29.208252 C97.7267114,30.8806236 93.8914633,33.7013148 88.9858398,37.6704102 C84.0802164,41.6395055 79.1969644,46.3889697 74.3359375,51.9189453 C73.3548128,53.0784563 72.4405967,54.226801 71.5932617,55.3640137 C70.7459268,56.5012264 69.9989453,57.5826772 69.3522949,58.6083984 C68.7468713,59.5687255 68.3857738,60.1185857 68.2689932,60.2579925 L68.2674117,60.2606542 Z" id="e6" stroke="#000000" stroke-width="3"></path>
            <path d="M77.1420898,90.2563477 L78.1455078,91.4604492 C74.221009,94.4930165 70.7982731,96.8008547 67.8771973,98.3840332 C64.9561215,99.9672117 62.4698996,100.758789 60.418457,100.758789 C58.6345939,100.758789 57.2855677,100.179042 56.3713379,99.0195312 C55.4571081,97.8600202 55,96.2991635 55,94.3369141 C55,90.6353982 56.7169425,85.361932 60.1508789,78.5163574 C63.5848153,71.6707828 68.9251754,64.0002866 76.1721191,55.5046387 C83.4190629,47.0089907 92.2824997,38.7698967 102.762695,30.7871094 C97.0543334,29.984371 91.3014613,29.5830078 85.5039062,29.5830078 C80.5982828,29.5830078 76.7184388,29.9174771 73.8642578,30.5864258 C71.0100769,31.2553744 68.2674285,32.1918885 65.6362305,33.3959961 C64.6997023,33.7973653 63.6628475,34.3771121 62.5256348,35.1352539 C61.388422,35.8933957 60.7306324,36.2724609 60.5522461,36.2724609 C60.1508769,36.2724609 59.6714709,36.0383324 59.1140137,35.5700684 C58.5565565,35.1018043 58.277832,34.5555044 58.277832,33.9311523 C58.277832,32.9946242 59.2366441,31.2553838 61.1542969,28.7133789 C63.0719497,26.171374 64.5213167,24.0307704 65.5024414,22.2915039 C66.7957421,20.061675 68.1336194,18.5008183 69.5161133,17.6088867 C70.6310277,17.0291312 73.8307841,16.4493844 79.1154785,15.8696289 C84.4001729,15.2898734 90.9223245,15 98.6821289,15 C99.9308331,15 101.435945,15.0334469 103.19751,15.1003418 C104.959075,15.1672367 106.854401,15.2787264 108.883545,15.4348145 C110.912689,15.5909025 112.395503,15.6912433 113.332031,15.7358398 C114.223963,17.6088961 114.90405,19.615712 115.372314,21.7563477 C115.840579,23.8969834 116.074707,25.6362238 116.074707,26.9741211 C116.074707,28.1782287 115.885174,29.1147427 115.506104,29.7836914 C115.127033,30.4526401 114.402349,31.2330685 113.332031,32.125 C111.235992,33.9980562 109.039644,36.0048721 106.74292,38.1455078 C104.446196,40.2861435 101.781591,42.984196 98.7490234,46.2397461 C95.7164562,49.4952962 92.8065732,52.9403301 90.0192871,56.5749512 C87.232001,60.2095722 84.4559058,64.212055 81.690918,68.5825195 C78.9259302,72.9083875 76.7964756,76.8439764 75.3024902,80.3894043 C73.8085049,83.9348322 73.0615234,86.8893111 73.0615234,89.2529297 C73.0615234,90.4570373 73.4628866,91.059082 74.265625,91.059082 C75.11296,91.059082 76.071772,90.7915066 77.1420898,90.2563477 Z" id="e7" stroke="#000000" stroke-width="3"></path>
            <path d="M85.8520508,58.0200195 C87.9034933,61.766132 89.508946,64.9993354 90.668457,67.7197266 C91.827968,70.4401178 92.4077148,72.9597866 92.4077148,75.2788086 C92.4077148,81.2101534 91.0363907,86.238342 88.2937012,90.3635254 C85.5510117,94.4887088 82.1505737,97.5323795 78.0922852,99.4946289 C74.0339966,101.456878 69.9088751,102.437988 65.7167969,102.437988 C62.1490707,102.437988 58.8043776,101.456878 55.6826172,99.4946289 C52.5608568,97.5323795 51,95.0350087 51,92.0024414 C51,89.8172091 51.8696202,87.1637526 53.6088867,84.0419922 C55.3481532,80.9202318 57.9124179,77.3414102 61.3017578,73.3054199 C64.6910977,69.2694297 68.883113,64.6872001 73.8779297,59.5585938 C67.3222328,51.8879825 64.0444336,44.9087228 64.0444336,38.6206055 C64.0444336,34.1609478 64.9809477,30.3145507 66.8540039,27.0812988 C68.7270601,23.848047 71.5254534,21.1834415 75.2492676,19.0874023 C78.9730818,16.9913632 83.5441624,15.4528044 88.9626465,14.4716797 C94.3811306,13.490555 100.769494,13 108.12793,13 C112.81057,13 116.066072,13.1895326 117.894531,13.5686035 C119.722991,13.9476744 120.637207,14.8953375 120.637207,16.4116211 C120.637207,16.8575869 120.39193,17.6714622 119.901367,18.8532715 C119.410805,20.0350808 118.708419,21.406405 117.794189,22.9672852 C116.87996,24.5281654 115.865403,25.9998303 114.750488,27.3823242 C114.170733,28.140466 113.557539,28.6087231 112.910889,28.7871094 C112.264238,28.9654957 111.138192,28.9877936 109.532715,28.8540039 C110.335453,30.1919012 110.736816,31.284501 110.736816,32.1318359 C110.736816,33.3359435 110.145921,34.562331 108.964111,35.8110352 C107.782302,37.0597393 105.418719,39.2337898 101.873291,42.333252 C98.3278631,45.4327141 95.2618944,48.2980012 92.675293,50.9291992 C91.7387648,51.8657273 90.6015692,53.0475189 89.2636719,54.4746094 C87.9257746,55.9016998 86.7885789,57.0834914 85.8520508,58.0200195 Z" id="e8" stroke="#000000" stroke-width="3"></path>
            <path d="M98.6118164,53.9428711 C93.9291758,57.7335802 89.8932461,60.8552937 86.5039062,63.3081055 C83.1145664,65.7609172 80.0708957,67.6673923 77.3728027,69.0275879 C74.6747098,70.3877835 72.2553818,71.0678711 70.1147461,71.0678711 C68.5538659,71.0678711 66.6250929,69.9641224 64.3283691,67.7565918 C62.0316454,65.5490612 60.0694255,62.8175619 58.4416504,59.5620117 C56.8138753,56.3064616 56,53.1624501 56,50.1298828 C56,44.5553107 58.8206912,38.8024385 64.4621582,32.8710938 C70.1036252,26.939749 76.6703727,21.9784542 84.1625977,17.9870605 C91.6548226,13.9956669 97.5191845,12 101.755859,12 C103.985688,12 106.081696,12.7358325 108.043945,14.2075195 C110.006195,15.6792066 111.544754,17.3069572 112.659668,19.0908203 C113.774582,20.8746834 114.332031,22.2571566 114.332031,23.2382812 C114.332031,24.6653717 113.373219,26.3934632 111.455566,28.4226074 C109.537914,30.4517517 107.430757,32.2913329 105.134033,33.9414062 C102.837309,35.5914796 101.376793,36.4165039 100.752441,36.4165039 C100.484862,36.4165039 100.351074,36.2381203 100.351074,35.8813477 C100.351074,35.3461887 101.644356,33.7853319 104.230957,31.1987305 C105.658047,29.77164 106.371582,28.5898484 106.371582,27.6533203 C106.371582,27.0735648 106.104007,26.7836914 105.568848,26.7836914 C104.676916,26.7836914 102.402525,27.5418218 98.7456055,29.0581055 C95.0886861,30.5743891 91.1642462,32.6035029 86.972168,35.1455078 C82.7800897,37.6875127 78.9894375,40.6531406 75.6000977,44.0424805 C73.0580928,46.6736785 71.1404687,49.4163269 69.847168,52.2705078 C68.5538672,55.1246888 67.9072266,57.2875903 67.9072266,58.7592773 C67.9072266,60.8553165 69.133614,61.9033203 71.5864258,61.9033203 C73.0135162,61.9033203 75.2321627,61.3012756 78.2424316,60.097168 C81.2527006,58.8930604 84.4190101,57.2653097 87.7414551,55.2138672 C91.0639001,53.1624246 93.8622933,50.9995231 96.1367188,48.7250977 C100.953149,43.9532639 104.308991,40.8426993 106.204346,39.3933105 C108.0997,37.9439218 109.805494,37.2192383 111.321777,37.2192383 C112.392095,37.2192383 113.295162,37.4979627 114.031006,38.0554199 C114.766849,38.6128771 115.134766,39.3375606 115.134766,40.2294922 C115.134766,40.5416682 113.77459,42.8829534 111.054199,47.253418 C103.428185,59.7404596 97.8202491,68.8380248 94.2302246,74.5463867 C90.6402001,80.2547486 87.295507,85.3052352 84.1960449,89.697998 C81.0965828,94.0907609 78.1309549,97.5580928 75.2990723,100.100098 C72.4671896,102.642103 69.9586698,103.913086 67.7734375,103.913086 C66.4801368,103.913086 65.8334961,103.043466 65.8334961,101.304199 C65.8334961,99.8771088 66.7365632,97.4020358 68.5427246,93.8789062 C70.348886,90.3557767 72.5898304,88.6388342 75.265625,88.7280273 C80.5726177,81.280399 84.8315269,75.1150147 88.0424805,70.2316895 C91.253434,65.3483643 94.7765108,59.9188124 98.6118164,53.9428711 Z" id="e9" stroke="#000000" stroke-width="3"></path>
            <path d="M46.0307617,37.8779297 L46.0307617,32.3925781 C47.6362385,30.9654877 49.2639891,29.5830145 50.9140625,28.2451172 C52.5641359,26.9072199 54.4037171,25.4578529 56.4328613,23.8969727 C58.4620056,22.3360925 60.5580133,20.8421295 62.7209473,19.4150391 C64.8838813,17.9879486 67.3478052,16.5162836 70.112793,15 C72.5656047,18.5677262 73.7919922,21.9793131 73.7919922,25.2348633 C73.7919922,27.0187264 73.412927,29.0032443 72.6547852,31.1884766 C71.8966433,33.3737088 70.8597885,35.8710797 69.5441895,38.6806641 C68.2285904,41.4902484 66.5896908,45.0133252 64.6274414,49.25 C59.3650453,60.8897066 55.4294564,70.4889759 52.8205566,78.0480957 C50.2116569,85.6072155 48.9072266,90.746894 48.9072266,93.4672852 C48.9072266,93.690268 49.0633122,94.5598883 49.3754883,96.0761719 C49.6876643,97.5924555 49.84375,98.7296512 49.84375,99.487793 C49.84375,100.781094 49.4758338,101.47233 48.7399902,101.561523 C48.0041467,101.650717 46.9672918,101.383141 45.6293945,100.758789 C42.1954581,99.0641191 39.8987688,97.4586664 38.7392578,95.9423828 C37.5797468,94.4260992 37,92.4638792 37,90.0556641 C37,85.7297961 38.5831547,79.0181119 41.7495117,69.9204102 C43.3549885,65.3269627 45.2280166,60.7558821 47.3686523,56.2070312 C49.509288,51.6581804 51.8840202,47.0536529 54.4929199,42.3933105 C57.1018197,37.7329682 59.5657436,33.4406121 61.8847656,29.5161133 C56.8453524,31.6121524 51.5607373,34.3993967 46.0307617,37.8779297 Z M129.046875,24.1645508 C131.142914,25.1010789 132.670324,26.6284888 133.62915,28.7468262 C134.587977,30.8651636 135.067383,33.9980261 135.067383,38.1455078 C135.067383,44.4336252 133.807548,51.2122032 131.287842,58.4814453 C128.768135,65.7506874 125.245058,72.5738613 120.718506,78.9511719 C116.191953,85.3284824 111.007679,90.5907996 105.165527,94.7382812 C98.6098305,99.3763253 93.2360236,101.695312 89.0439453,101.695312 C85.7883952,101.695312 82.7335755,100.714203 79.8793945,98.7519531 C77.0252136,96.7897037 74.7508223,93.9913105 73.0561523,90.3566895 C71.3614824,86.7220684 70.5141602,82.4743082 70.5141602,77.6132812 C70.5141602,70.8346015 72.3760393,63.7104052 76.0998535,56.2404785 C79.8236677,48.7705518 84.550834,42.0254207 90.2814941,36.0048828 C96.0121543,29.9843449 101.988006,25.3463704 108.209229,22.0908203 C114.430451,18.8352702 119.770811,17.6980745 124.230469,18.6791992 C127.129246,19.3035513 128.734699,21.1319835 129.046875,24.1645508 Z" id="e10" stroke="#000000" stroke-width="3"></path>
        </g>
    </g>
</svg>