<?xml version="1.0" encoding="UTF-8"?>
<svg width="171px" height="117px" viewBox="0 0 171 117" version="1.1" xmlns="http://www.w3.org/2000/svg" xmlns:xlink="http://www.w3.org/1999/xlink">
    <!-- Generator: Sketch 52.6 (67491) - http://www.bohemiancoding.com/sketch -->
    <title>digital</title>
    <desc>Created with Sketch.</desc>
    <g id="Page-1" stroke="none" stroke-width="1" fill="none" fill-rule="evenodd">
        <g id="digital">
            <rect id="Rectangle" fill="#D8D8D8" x="0" y="0" width="171" height="117"></rect>
            <path d="M50,16 C50,65.503715 50,93.503715 50,100 C58.3883054,100 66.8027793,100 80.9780647,100 C80.9780647,83.4817126 80.9780647,26.9547227 80.9780647,18.3757645 C87.7070815,18.3757645 112.85638,18.3757645 121,18.3757645 C121,25.0891591 121,92.1477361 121,100 C113.954319,100 90.0958767,100 89.5679789,100" id="e10" stroke="#000000" stroke-width="7" stroke-linejoin="bevel"></path>
            <path d="M107,59.711645 C107,35.095138 107,20.857923 107,17 C101.736965,17 73.9141447,17 68.4908783,17 C68.575314,20.257839 68.4908783,62.5052998 68.4908783,67.1260962 C75.2866401,67.1260962 98.7756037,67.1260962 107,67.1260962 C107,73.892459 107,96.6220353 107,99 C99.2854069,99 70.865996,99 64,99" id="e9" stroke="#000000" stroke-width="7" stroke-linejoin="bevel"></path>
            <path d="M104.485778,51.5621761 C104.485778,31.7220328 104.485778,19.8679741 104.485778,16 C99.3626033,16 72.2791482,16 67,16 C67.0821919,19.2663267 67,54.9732946 67,59.6061296 C73.6151709,59.6061296 96.4799374,59.6061296 104.485778,59.6061296 C104.485778,104.203502 112.300593,98.7937953 67,98.7937953 C67,92.9199546 67,76.7084862 67,68.0737222" id="e8" stroke="#000000" stroke-width="7" stroke-linejoin="bevel"></path>
            <path d="M59,13 C88.4758694,13 106.142536,13 112,13 C112,20.2464953 112,23.4894624 112,29.6384539 C88.7098123,29.6384539 88.7098123,75.5964148 88.7098123,104" id="e7" stroke="#000000" stroke-width="7" stroke-linejoin="bevel"></path>
            <path d="M106,15 C83.6879276,15 70.021261,15 65,15 C65,22.2374678 65,90.6962708 65,101 C74.0215865,101 95.4138984,101 104.141422,101 C104.141422,93.7665592 104.141422,58.0841741 104.141422,48.8355006 C94.8948038,48.8355006 80.057129,48.8355006 71.5253546,48.8355006" id="e6" stroke="#000000" stroke-width="7" stroke-linejoin="bevel"></path>
            <path d="M110,15 C81.7138695,15 65.0472028,15 60,15 C60,22.2179993 60,39.3438255 60,49.6198381 C69.0681957,49.6198381 97.3467037,49.6198381 106.119317,49.6198381 C106.119317,54.8378197 106.119317,95.5077204 106.119317,100 C101.935932,100 77.9097142,100 60,100 C60,95.5365228 60,90.9906014 60,84.3253298" id="e5" stroke="#000000" stroke-width="7" stroke-linejoin="bevel"></path>
            <path d="M120,67.616881 L52,67.616881 L97.933484,12 L97.933484,102.271852" id="e4" stroke="#000000" stroke-width="7" stroke-linejoin="bevel"></path>
            <path d="M59,16 L112,16 L72.4224008,47.7004361 C90.4895071,47.7004361 102.079814,47.7004361 107.193322,47.7004361 C107.193322,57.4185502 107.193322,83.9327798 107.193322,100 C99.364959,100 75.4463524,100 63.680547,100 C63.680547,94.2472938 63.680547,91.792953 63.680547,85.3590041" id="e3" stroke="#000000" stroke-width="7" stroke-linejoin="bevel"></path>
            <path d="M57.3204776,31.1230963 C57.3204776,24.7352035 57.3204776,20.8266849 57.3204776,15 C60.6231453,15 98.4592299,15 112.177037,15 C112.177037,57.5 57.3204776,62.2839328 56,100 C60.0990747,100 111.249031,100 115,100" id="e2" stroke="#000000" stroke-width="7" stroke-linejoin="bevel"></path>
            <path d="M75,25.5193828 C81.6904524,22.2780363 87.7672242,19.2843694 95,15 C95,21.1719365 95,93.4927677 95,100" id="e1" stroke="#000000" stroke-width="7" stroke-linejoin="bevel"></path>
            <path d="M65,72.0714336 C65,60.9006039 65,22.0500552 65,18 C68.7016522,18 81.915385,18 104.641198,18 C105.547066,66.1578949 106,92.4912283 106,97 C100.163121,97 72.4173641,97 65,97 C65,92.3195946 65,91.6116635 65,88.391702 C77.8123838,74.7215718 93.1920106,41.8810341 95.0154921,33.0477515" id="e0" stroke="#000000" stroke-width="7" stroke-linejoin="bevel"></path>
        </g>
    </g>
</svg>