<?xml version="1.0" encoding="UTF-8"?>
<svg width="171px" height="117px" viewBox="0 0 171 117" version="1.1" xmlns="http://www.w3.org/2000/svg" xmlns:xlink="http://www.w3.org/1999/xlink">
    <!-- Generator: Sketch 52.6 (67491) - http://www.bohemiancoding.com/sketch -->
    <title>digital</title>
    <desc>Created with Sketch.</desc>
    <g id="Page-1" stroke="none" stroke-width="1" fill="none" fill-rule="evenodd">
        <g id="digital">
            <rect id="Rectangle" fill="#D8D8D8" x="0" y="0" width="171" height="117"></rect>
            <path d="M65.124,12.74 C66.9506758,10.9133242 69.2339863,10 71.974,10 L100.059,10 C102.70768,10 104.945324,10.9589904 106.772,12.877 L111.156,17.261 C112.982676,19.0876758 113.896,21.3253201 113.896,23.974 L113.896,94.94 C113.896,96.3100069 113.667669,97.5201614 113.211,98.5705 C112.754331,99.6208386 112.023672,100.648328 111.019,101.653 L106.635,106.037 C104.808324,107.863676 102.57068,108.777 99.922,108.777 L71.837,108.777 C69.1883201,108.777 66.9506758,107.863676 65.124,106.037 L60.74,101.653 C58.9133242,99.8263242 58,97.5886799 58,94.94 L58,23.837 C58,21.1883201 58.9133242,18.9506758 60.74,17.124 L65.124,12.74 Z" id="e0" stroke="#000000" stroke-width="3"></path>
            <path d="M92.605,90.83 C92.605,92.565342 92.9703297,93.9124952 93.701,94.8715 C94.4316703,95.8305048 95.4363269,96.31 96.715,96.31 C97.9936731,96.31 98.9754966,96.7894952 99.6605,97.7485 C100.345503,98.7075048 100.688,100.054658 100.688,101.79 L100.688,103.297 C100.688,106.950352 98.8613516,108.777 95.208,108.777 L75.48,108.777 C71.8266484,108.777 70,106.950352 70,103.297 L70,101.79 C70,98.1366484 71.6896498,96.31 75.069,96.31 C78.4483502,96.31 80.138,94.4833516 80.138,90.83 L80.138,27.947 C80.138,24.2936484 78.4483502,22.467 75.069,22.467 C71.6896498,22.467 70,20.6403516 70,16.987 L70,15.48 C70,11.8266484 71.8266484,10 75.48,10 L78.768,10 C81.4166799,10 83.6543242,10.9133242 85.481,12.74 L89.865,17.124 C91.6916758,18.9506758 92.605,21.1883201 92.605,23.837 L92.605,90.83 Z" id="e1" stroke="#000000" stroke-width="3"></path>
            <path d="M58,15.48 C58,11.8266484 59.8266484,10 63.48,10 L99.922,10 C102.57068,10 104.808324,10.9589904 106.635,12.877 L111.019,17.261 C112.845676,19.0876758 113.759,21.3253201 113.759,23.974 L113.759,52.059 C113.759,54.7076799 112.845676,56.9909904 111.019,58.909 L106.635,63.293 C104.808324,65.1196758 102.57068,66.033 99.922,66.033 L75.947,66.033 C72.2936484,66.033 70.467,67.8596484 70.467,71.513 L70.467,90.693 C70.467,94.3463516 72.2936484,96.173 75.947,96.173 L108.279,96.173 C111.932352,96.173 113.759,97.9996484 113.759,101.653 L113.759,103.16 C113.759,106.813352 111.932352,108.64 108.279,108.64 L71.7,108.64 C70.3299932,108.64 69.1198386,108.434502 68.0695,108.0235 C67.0191614,107.612498 65.9916717,106.950338 64.987,106.037 L61.014,102.612 C59.0046566,100.69399 58,98.4106799 58,95.762 L58,67.266 C58,65.8959931 58.2283311,64.6858386 58.685,63.6355 C59.141669,62.5851614 59.8723283,61.5576717 60.877,60.553 L65.124,56.306 C66.9506758,54.4793242 69.1883201,53.566 71.837,53.566 L95.949,53.566 C99.6023516,53.566 101.429,51.7393516 101.429,48.086 L101.429,27.947 C101.429,24.2936484 99.6023516,22.467 95.949,22.467 L63.48,22.467 C59.8266484,22.467 58,20.6403516 58,16.987 L58,15.48 Z" id="e2" stroke="#000000" stroke-width="3"></path>
            <path d="M111.156,17.124 C112.982676,18.9506758 113.896,21.1883201 113.896,23.837 L113.896,49.456 C113.896,52.1046799 112.982676,54.3879904 111.156,56.306 C110.059995,57.4020055 109.512,58.5436607 109.512,59.731 C109.512,60.8270055 109.968662,61.8316621 110.882,62.745 L111.156,63.019 C112.982676,64.8456758 113.896,67.1289863 113.896,69.869 L113.896,94.803 C113.896,97.4516799 112.982676,99.6893242 111.156,101.516 L106.772,105.9 C104.945324,107.726676 102.70768,108.64 100.059,108.64 L63.48,108.64 C59.8266484,108.64 58,106.813352 58,103.16 L58,101.79 C58,98.1366484 59.8266484,96.31 63.48,96.31 L96.086,96.31 C99.7393516,96.31 101.566,94.4833516 101.566,90.83 L101.566,71.376 C101.566,67.7226484 99.7393516,65.896 96.086,65.896 L64.713,65.896 C61.0596484,65.896 59.233,64.0693516 59.233,60.416 L59.233,58.909 C59.233,55.2556484 61.0596484,53.429 64.713,53.429 L96.086,53.429 C99.7393516,53.429 101.566,51.6023516 101.566,47.949 L101.566,27.947 C101.566,24.2936484 99.7393516,22.467 96.086,22.467 L63.48,22.467 C59.8266484,22.467 58,20.6403516 58,16.987 L58,15.48 C58,11.8266484 59.8266484,10 63.48,10 L100.059,10 C102.70768,10 104.945324,10.9133242 106.772,12.74 L111.156,17.124 Z" id="e3" stroke="#000000" stroke-width="3"></path>
            <path d="M100.566,15.48 C100.566,11.8266484 102.392648,10 106.046,10 L107.553,10 C111.206352,10 113.033,11.8266484 113.033,15.48 L113.033,103.16 C113.033,106.813352 111.206352,108.64 107.553,108.64 L106.046,108.64 C102.392648,108.64 100.566,106.813352 100.566,103.16 L100.566,81.514 C100.566,77.8606484 98.7393516,76.034 95.086,76.034 L70.974,76.034 C68.3253201,76.034 66.0876758,75.1206758 64.261,73.294 L59.74,68.773 C57.9133242,66.9463242 57,64.7086799 57,62.06 L57,15.48 C57,11.8266484 58.8266484,10 62.48,10 L63.987,10 C67.6403516,10 69.467,11.8266484 69.467,15.48 L69.467,58.087 C69.467,61.7403516 71.2936484,63.567 74.947,63.567 L95.086,63.567 C98.7393516,63.567 100.566,61.7403516 100.566,58.087 L100.566,15.48 Z" id="e4" stroke="#000000" stroke-width="3"></path>
            <path d="M113.896,16.987 C113.896,20.6403516 112.069352,22.467 108.416,22.467 L75.947,22.467 C72.2936484,22.467 70.467,24.2936484 70.467,27.947 L70.467,47.127 C70.467,50.7803516 72.2936484,52.607 75.947,52.607 L99.922,52.607 C102.662014,52.607 104.945324,53.5203242 106.772,55.347 L111.156,59.731 C112.982676,61.5576758 113.896,63.7953201 113.896,66.444 L113.896,95.077 C113.896,96.4470069 113.667669,97.6571614 113.211,98.7075 C112.754331,99.7578386 112.023672,100.785328 111.019,101.79 L106.635,106.174 C104.808324,108.000676 102.57068,108.914 99.922,108.914 L63.48,108.914 C59.8266484,108.914 58,107.087352 58,103.434 L58,101.927 C58,98.2736484 59.8266484,96.447 63.48,96.447 L95.949,96.447 C99.6023516,96.447 101.429,94.6203516 101.429,90.967 L101.429,70.554 C101.429,66.9006484 99.6023516,65.074 95.949,65.074 L71.974,65.074 C69.2339863,65.074 66.9506758,64.1606758 65.124,62.334 L60.877,58.224 C59.8723283,57.2193283 59.1416689,56.1918386 58.685,55.1415 C58.228331,54.0911614 58,52.8810069 58,51.511 L58,23.837 C58,22.4669932 58.228331,21.2568386 58.685,20.2065 C59.1416689,19.1561614 59.8723283,18.1286717 60.877,17.124 L65.261,12.74 C67.0876758,10.9133242 69.3253201,10 71.974,10 L108.416,10 C112.069352,10 113.896,11.8266484 113.896,15.48 L113.896,16.987 Z" id="e5" stroke="#000000" stroke-width="3"></path>
            <path d="M113.896,16.987 C113.896,20.6403516 112.069352,22.467 108.416,22.467 L75.81,22.467 C72.1566484,22.467 70.33,24.2936484 70.33,27.947 L70.33,42.195 C70.33,45.8483516 72.1566484,47.675 75.81,47.675 L99.922,47.675 C102.662014,47.675 104.945324,48.5883242 106.772,50.415 L111.156,54.799 C112.982676,56.6256758 113.896,58.8633201 113.896,61.512 L113.896,95.077 C113.896,96.4470068 113.667669,97.6571614 113.211,98.7075 C112.754331,99.7578386 112.023672,100.785328 111.019,101.79 L106.635,106.174 C104.808324,108.000676 102.57068,108.914 99.922,108.914 L71.837,108.914 C69.1883201,108.914 66.9506758,108.000676 65.124,106.174 L60.74,101.79 C58.9133242,99.9633242 58,97.7256799 58,95.077 L58,23.837 C58,21.1883201 58.9133242,18.9506758 60.74,17.124 L65.124,12.74 C66.9506758,10.9133242 69.1883201,10 71.837,10 L108.416,10 C112.069352,10 113.896,11.8266484 113.896,15.48 L113.896,16.987 Z" id="e6" stroke="#000000" stroke-width="3"></path>
            <path d="M66.48,22.467 C62.8266484,22.467 61,20.6403516 61,16.987 L61,15.48 C61,11.8266484 62.8266484,10 66.48,10 L96.894,10 C99.6340137,10 101.917324,10.9133242 103.744,12.74 L108.128,17.124 C109.954676,18.9506758 110.868,21.1883201 110.868,23.837 L110.868,103.297 C110.868,106.950352 109.041352,108.777 105.388,108.777 L103.881,108.777 C100.227648,108.777 98.401,106.950352 98.401,103.297 L98.401,27.947 C98.401,24.2936484 96.5743516,22.467 92.921,22.467 L66.48,22.467 Z" id="e7" stroke="#000000" stroke-width="3"></path>
            <path d="M64.124,12.74 C65.9506758,10.9133242 68.2339863,10 70.974,10 L99.196,10 C101.84468,10 104.082324,10.9589904 105.909,12.877 L110.293,17.261 C112.119676,19.0876758 113.033,21.3253201 113.033,23.974 L113.033,47.127 C113.033,49.7756799 112.119676,52.0589904 110.293,53.977 C109.196995,55.0730055 108.649,56.2146607 108.649,57.402 C108.649,58.4980055 109.105662,59.5026621 110.019,60.416 L110.293,60.69 C112.119676,62.5166758 113.033,64.7999863 113.033,67.54 L113.033,94.94 C113.033,96.3100069 112.804669,97.5201614 112.348,98.5705 C111.891331,99.6208386 111.160672,100.648328 110.156,101.653 L105.772,106.037 C103.945324,107.863676 101.70768,108.777 99.059,108.777 L70.837,108.777 C68.1883201,108.777 65.9506758,107.863676 64.124,106.037 L59.74,101.653 C57.9133242,99.8263242 57,97.5886799 57,94.94 L57,67.54 C57,66.1699932 57.228331,64.9598386 57.685,63.9095 C58.1416689,62.8591614 58.8723283,61.8316717 59.877,60.827 C61.0643393,59.6396607 61.658,58.4523393 61.658,57.265 C61.658,56.2603283 61.1556717,55.2556717 60.151,54.251 L59.74,53.84 C57.9133242,52.0133242 57,49.7756799 57,47.127 L57,23.837 C57,21.1883201 57.9133242,18.9506758 59.74,17.124 L64.124,12.74 Z" id="e8" stroke="#000000" stroke-width="3"></path>
            <path d="M101.018,10 C103.758014,10 105.995658,11.0046566 107.731,13.014 L111.293,16.987 C113.028342,18.9963434 113.896,21.2339877 113.896,23.7 L113.896,53.155 C113.896,55.8036799 112.982676,58.0413242 111.156,59.868 C110.059995,60.9640055 109.512,62.1056607 109.512,63.293 C109.512,64.4803393 109.968662,65.5306621 110.882,66.444 L111.156,66.718 C112.982676,68.5446758 113.896,70.8279863 113.896,73.568 L113.896,94.666 C113.896,96.0360069 113.667669,97.2461614 113.211,98.2965 C112.754331,99.3468386 112.023672,100.374328 111.019,101.379 L106.635,105.763 C104.808324,107.589676 102.57068,108.503 99.922,108.503 L63.48,108.503 C59.8266484,108.503 58,106.676352 58,103.023 L58,101.653 C58,97.9996484 59.8266484,96.173 63.48,96.173 L95.949,96.173 C99.6023516,96.173 101.429,94.3463516 101.429,90.693 L101.429,75.075 C101.429,71.4216484 99.6023516,69.595 95.949,69.595 L71.974,69.595 C69.3253201,69.595 67.0876758,68.6816758 65.261,66.855 L60.74,62.334 C58.9133242,60.5073242 58,58.2696799 58,55.621 L58,23.7 C58,22.3299932 58.228331,21.1198386 58.685,20.0695 C59.1416689,19.0191614 59.8723283,17.9916717 60.877,16.987 L65.124,12.74 C66.9506758,10.9133242 69.2339863,10 71.974,10 L101.018,10 Z" id="e9" stroke="#000000" stroke-width="3"></path>
            <path d="M59.605,90.83 C59.605,92.565342 59.9703297,93.9124952 60.701,94.8715 C61.4316703,95.8305048 62.4363269,96.31 63.715,96.31 C64.9936731,96.31 65.9754966,96.7894952 66.6605,97.7485 C67.3455034,98.7075048 67.688,100.054658 67.688,101.79 L67.688,103.297 C67.688,106.950352 65.8613516,108.777 62.208,108.777 L42.48,108.777 C38.8266484,108.777 37,106.950352 37,103.297 L37,101.79 C37,98.1366484 38.6896498,96.31 42.069,96.31 C45.4483502,96.31 47.138,94.4833516 47.138,90.83 L47.138,27.947 C47.138,24.2936484 45.4483502,22.467 42.069,22.467 C38.6896498,22.467 37,20.6403516 37,16.987 L37,15.48 C37,11.8266484 38.8266484,10 42.48,10 L45.768,10 C48.4166799,10 50.6543242,10.9133242 52.481,12.74 L56.865,17.124 C58.6916758,18.9506758 59.605,21.1883201 59.605,23.837 L59.605,90.83 Z M84.402,12.877 C86.2286758,11.0503242 88.5119863,10.137 91.252,10.137 L119.337,10.137 C121.98568,10.137 124.223324,11.0959904 126.05,13.014 L130.434,17.398 C132.260676,19.2246758 133.174,21.4623201 133.174,24.111 L133.174,95.077 C133.174,96.4470068 132.945669,97.6571614 132.489,98.7075 C132.032331,99.7578386 131.301672,100.785328 130.297,101.79 L125.913,106.174 C124.086324,108.000676 121.84868,108.914 119.2,108.914 L91.115,108.914 C88.4663201,108.914 86.2286758,108.000676 84.402,106.174 L80.018,101.79 C78.1913242,99.9633242 77.278,97.7256799 77.278,95.077 L77.278,23.974 C77.278,21.3253201 78.1913242,19.0876758 80.018,17.261 L84.402,12.877 Z" id="e10" stroke="#000000" stroke-width="3"></path>
        </g>
    </g>
</svg>