<?xml version="1.0" encoding="UTF-8"?>
<svg width="171px" height="117px" viewBox="0 0 171 117" version="1.1" xmlns="http://www.w3.org/2000/svg" xmlns:xlink="http://www.w3.org/1999/xlink">
    <!-- Generator: Sketch 52.6 (67491) - http://www.bohemiancoding.com/sketch -->
    <title>out</title>
    <desc>Created with Sketch.</desc>
    <g id="Page-1" stroke="none" stroke-width="1" fill="none" fill-rule="evenodd">
        <g id="out">
            <rect id="Rectangle" fill="#D8D8D8" x="0" y="0" width="171" height="117"></rect>
            <path d="M118.1435,58.6745 C118.1435,67.9905466 114.981115,75.7538023 108.65625,81.9645 C102.331385,88.1751977 94.6480452,91.2805 85.606,91.2805 C76.5182879,91.2805 68.812115,88.1751977 62.48725,81.9645 C56.162385,75.7538023 53,67.9905466 53,58.6745 C53,49.3127865 56.162385,41.5266977 62.48725,35.316 C68.812115,29.1053023 76.5182879,26 85.606,26 C94.6480452,26 102.331385,29.1053023 108.65625,35.316 C114.981115,41.5266977 118.1435,49.3127865 118.1435,58.6745 Z" id="e0" stroke="#000000" stroke-width="3"></path>
            <path d="M104.264,87.321 C104.264,88.5996731 103.944337,89.239 103.305,89.239 C101.38699,89.239 98.6013516,89.1020014 94.948,88.828 C90.9749801,88.5539986 87.8696779,88.417 85.632,88.417 C83.3486552,88.417 80.2205199,88.5539986 76.2475,88.828 C72.6854822,89.1020014 69.9683427,89.239 68.096,89.239 C67.3653297,89.239 67,88.5996731 67,87.321 C67,86.5446628 67.1712483,86.0423345 67.51375,85.814 C67.8562517,85.5856655 68.5298283,85.4258338 69.5345,85.3345 C73.0965178,84.8778311 75.414078,84.3070034 76.48725,83.622 C77.560422,82.9369966 78.325331,81.8866737 78.782,80.471 C79.2386689,79.0553263 79.467,77.046013 79.467,74.443 L79.467,42.796 C79.467,39.9189856 79.1701696,37.7498406 78.5765,36.2885 C77.9828304,34.8271594 77.0466731,33.8225027 75.768,33.2745 C74.4893269,32.7264973 72.2973489,32.2698352 69.192,31.9045 C68.2786621,31.8131662 67.6850014,31.6419179 67.411,31.39075 C67.1369986,31.1395821 67,30.6486703 67,29.918 C67,28.6393269 67.3653297,28 68.096,28 C69.9683427,28 72.6854822,28.1369986 76.2475,28.411 C80.2205199,28.6850014 83.3486552,28.822 85.632,28.822 C87.8696779,28.822 90.9749801,28.6850014 94.948,28.411 C98.6013516,28.1369986 101.38699,28 103.305,28 C103.944337,28 104.264,28.6393269 104.264,29.918 C104.264,31.1053393 103.556174,31.7674993 102.1405,31.9045 C98.4414815,32.3155021 96.0325889,32.85208 94.91375,33.51425 C93.7949111,34.17642 92.9957524,35.2381594 92.51625,36.6995 C92.0367476,38.1608406 91.797,40.192987 91.797,42.796 L91.797,74.443 C91.797,77.3656813 92.0824138,79.5462428 92.65325,80.98475 C93.2240862,82.4232572 94.1374104,83.4164973 95.39325,83.9645 C96.6490896,84.5125027 98.7839849,84.9691648 101.798,85.3345 C102.757005,85.4258338 103.407748,85.574249 103.75025,85.77975 C104.092752,85.985251 104.264,86.4989959 104.264,87.321 Z" id="e1" stroke="#000000" stroke-width="3"></path>
            <path d="M111.882,74.1965 C109.370321,79.0828578 107.132676,84.4714705 105.169,90.3625 C102.017984,89.8144973 94.9853879,89.5405 84.071,89.5405 C70.9189342,89.5405 62.9958468,89.8144973 60.3015,90.3625 C59.433829,90.3625 59,89.8601717 59,88.8555 C59,88.6271655 61.0093132,86.6178523 65.028,82.8275 C75.485719,72.9634507 82.5297318,65.531275 86.16025,60.53075 C89.7907682,55.530225 91.606,51.3175171 91.606,47.8925 C91.606,40.951132 87.7700384,37.4805 80.098,37.4805 C74.6179726,37.4805 69.480524,40.0606409 64.6855,45.221 C64.4571655,45.4493345 64.114669,45.5635 63.658,45.5635 C63.0186635,45.5635 62.4592524,45.3465855 61.97975,44.91275 C61.5002476,44.4789145 61.2605,44.033669 61.2605,43.577 C61.2605,43.0289973 62.790318,40.9740178 65.85,37.412 C68.909682,33.8499822 71.969318,31.2241751 75.029,29.5345 C78.088682,27.8448249 81.2853167,27 84.619,27 C90.281695,27 94.9168153,28.6439836 98.5245,31.932 C102.132185,35.2200164 103.936,39.4441409 103.936,44.6045 C103.936,47.9381833 102.394765,51.6828126 99.31225,55.8385 C96.2297346,59.9941874 89.459719,66.6614541 79.002,75.8405 C77.2209911,77.4388413 75.896671,78.6261628 75.029,79.4025 L96.812,79.4025 C99.415013,79.4025 101.390077,79.0257538 102.73725,78.27225 C104.084423,77.5187462 105.899655,75.7035144 108.183,72.8265 C108.548335,72.3698311 109.02783,72.1415 109.6215,72.1415 C110.169503,72.1415 110.694664,72.3355814 111.197,72.72375 C111.699336,73.1119186 111.927667,73.6028304 111.882,74.1965 Z" id="e2" stroke="#000000" stroke-width="3"></path>
            <path d="M108.169,69.7455 C108.169,75.2711943 106.296685,80.6598071 102.552,85.9115 C98.8073146,91.1631929 93.7155322,95.7183974 87.2765,99.57725 C80.8374678,103.436103 75.4716881,105.3655 71.179,105.3655 C65.0596361,105.3655 62,103.538852 62,99.8855 C62,96.8714849 63.5983174,95.3645 66.795,95.3645 C68.3476744,95.3645 70.2428221,95.9124945 72.4805,97.0085 C74.2615089,97.9218379 75.6543283,98.3785 76.659,98.3785 C81.7736922,98.3785 86.2489808,95.7184433 90.085,90.39825 C93.9210192,85.0780567 95.839,79.0158674 95.839,72.2115 C95.839,67.7818112 94.4918468,64.0257654 91.7975,60.94325 C89.1031532,57.8607346 85.7466868,56.3195 81.728,56.3195 C78.5313173,56.3195 75.8826772,56.9588269 73.782,58.2375 L73.4395,58.306 C72.9828311,58.306 72.5375855,58.0434193 72.10375,57.51825 C71.6699145,56.9930807 71.453,56.4565027 71.453,55.9085 C71.453,55.3604973 71.6356648,54.9951676 72.001,54.8125 C86.4317388,47.8254651 93.647,40.1078756 93.647,31.6595 C93.647,28.6911518 92.6309268,26.2822592 90.59875,24.43275 C88.5665732,22.5832408 85.8836833,21.6585 82.55,21.6585 C76.5219699,21.6585 71.9553489,23.8504781 68.85,28.2345 C68.5759986,28.5998352 68.1878358,28.7825 67.6855,28.7825 C67.1374973,28.7825 66.6123358,28.5884186 66.11,28.20025 C65.6076642,27.8120814 65.3565,27.4125021 65.3565,27.0015 C65.3565,26.0881621 66.6808201,24.1815978 69.3295,21.28175 C71.9781799,18.3819022 74.9464836,16.1100082 78.2345,14.466 C81.5225164,12.8219918 84.7876505,12 88.03,12 C92.9163578,12 97.1290656,13.5983174 100.66825,16.795 C104.207434,19.9916826 105.977,23.6678126 105.977,27.8235 C105.977,31.3855178 104.789679,34.7534008 102.415,37.92725 C100.040321,41.1010992 96.1586936,44.4918153 90.77,48.0995 C96.2956943,48.8301703 100.576901,51.0906477 103.61375,54.881 C106.650599,58.6713523 108.169,63.6261361 108.169,69.7455 Z" id="e3" stroke="#000000" stroke-width="3"></path>
            <path d="M118.7875,70.362 C118.7875,72.8280123 118.193839,74.061 117.0065,74.061 L102.142,74.061 L102.142,102.009 C102.142,103.92701 100.087021,104.886 95.977,104.886 C91.8669795,104.886 89.812,103.92701 89.812,102.009 L89.812,74.061 L53.37,74.061 C52.4566621,74.061 52,73.5130055 52,72.417 C52,71.9603311 52.4109959,71.2296717 53.233,70.225 L97.21,14.192 C98.4886731,12.7306594 99.8586594,12 101.32,12 C102.598673,12 103.238,12.3653297 103.238,13.096 C102.50733,20.7680384 102.142,28.7139589 102.142,36.934 L102.142,66.663 L117.1435,66.663 C118.239505,66.663 118.7875,67.8959877 118.7875,70.362 Z" id="e4" stroke="#000000" stroke-width="3"></path>
            <path d="M110.69,11.918 L107.402,19.6585 C106.305995,22.3071799 105.09584,24.1566614 103.7715,25.207 C102.44716,26.2573386 100.643345,26.7825 98.36,26.7825 L77.262,26.7825 L73.563,36.3725 C73.1976648,37.240171 73.015,37.9479973 73.015,38.496 C73.015,39.5920055 73.8369918,40.3911642 75.481,40.8935 C92.6517525,46.0538591 101.237,56.0547591 101.237,70.8965 C101.237,80.3495473 97.2297901,88.6037147 89.21525,95.65925 C81.2007099,102.714785 71.8277203,106.2425 61.096,106.2425 C60.3653297,106.2425 60,105.603173 60,104.3245 C60,103.045827 60.3653297,102.4065 61.096,102.4065 C69.361708,102.4065 76.0860574,99.8720253 81.26925,94.803 C86.4524426,89.7339747 89.044,83.2265397 89.044,75.2805 C89.044,68.9784685 87.4685158,64.0351013 84.3175,60.45025 C81.1664842,56.8653987 75.6637059,53.9085116 67.809,51.5795 C65.616989,50.9401635 64.521,49.752842 64.521,48.0175 C64.521,47.3324966 64.7036648,46.556171 65.069,45.6885 L76.988,16.3705 C77.3990021,15.2744945 78.1753276,14.7265 79.317,14.7265 L100.278,14.7265 C101.967675,14.7265 103.246329,14.4753358 104.114,13.973 C104.981671,13.4706642 105.894995,12.4660075 106.854,10.959 C107.219335,10.3196635 107.76733,10 108.498,10 C109.046003,10 109.548331,10.1826648 110.005,10.548 C110.461669,10.9133352 110.69,11.3699973 110.69,11.918 Z" id="e5" stroke="#000000" stroke-width="3"></path>
            <path d="M114.8415,12.466 C114.8415,13.1966703 114.681668,13.6076662 114.362,13.699 C101.757937,17.9003543 91.1862094,25.6864431 82.6465,37.0575 C74.1067906,48.4285569 69.837,60.849766 69.837,74.3215 C69.837,82.9982101 71.2184029,89.7568091 73.98125,94.5975 C76.7440971,99.4381909 80.6599747,101.8585 85.729,101.8585 C90.6153578,101.8585 94.3714035,99.7806874 96.99725,95.625 C99.6230965,91.4693126 100.936,85.5098721 100.936,77.7465 C100.936,71.3074678 99.6459296,66.2727682 97.06575,62.64225 C94.4855704,59.0117318 90.9350226,57.1965 86.414,57.1965 C84.5873242,57.1965 82.8520082,57.6074959 81.208,58.4295 L80.66,58.5665 C80.1119973,58.5665 79.609669,58.2810862 79.153,57.71025 C78.6963311,57.1394138 78.468,56.6256689 78.468,56.169 C78.468,55.301329 80.0549008,53.8856765 83.22875,51.922 C86.4025992,49.9583235 89.3823194,48.9765 92.168,48.9765 C98.7896998,48.9765 104.109813,51.476725 108.1285,56.47725 C112.147187,61.477775 114.1565,68.0194596 114.1565,76.1025 C114.1565,84.1855404 111.279529,91.2295533 105.5255,97.23475 C99.7714712,103.239947 92.8073742,106.2425 84.633,106.2425 C76.3216251,106.2425 69.4716936,103.251363 64.083,97.269 C58.6943064,91.2866368 56,84.0485425 56,75.5545 C56,59.7080874 63.4207591,44.820903 78.2625,30.8925 C82.189853,27.1934815 86.4482271,23.8027654 91.03775,20.72025 C95.6272729,17.6377346 100.216727,15.0804268 104.80625,13.04825 C109.395773,11.0160732 112.238495,10 113.3345,10 C114.339172,10 114.8415,10.8219918 114.8415,12.466 Z" id="e6" stroke="#000000" stroke-width="3"></path>
            <path d="M111.608,13.507 L111.4025,14.192 L75.988,102.557 C75.5313311,103.744339 74.207011,104.338 72.015,104.338 C70.0056566,104.338 69.001,103.767172 69.001,102.6255 L69.0695,102.146 L102.292,24.878 L73.659,24.878 C71.2386546,24.878 69.0466765,25.5744097 67.083,26.96725 C65.1193235,28.3600903 63.703671,30.2209884 62.836,32.55 C62.5619986,33.2806703 61.9226717,33.646 60.918,33.646 C59.8219945,33.646 59.1826676,33.2350041 59,32.413 C61.192011,25.471632 62.7903283,18.6673667 63.795,12 C66.0783447,12.5480027 73.6589356,12.822 86.537,12.822 C100.100068,12.822 108.091655,12.5480027 110.512,12 C111.24267,12 111.608,12.5023283 111.608,13.507 Z" id="e7" stroke="#000000" stroke-width="3"></path>
            <path d="M111.197,82.4045 C111.197,89.1175336 108.731025,94.7687271 103.799,99.35825 C98.8669753,103.947773 92.5650384,106.2425 84.893,106.2425 C77.1296278,106.2425 70.8733571,104.141854 66.124,99.9405 C61.3746429,95.7391457 59,90.4875315 59,84.1855 C59,79.5731436 60.7695656,74.9151902 64.30875,70.2115 C67.8479344,65.5078098 72.5629705,61.4435171 78.454,58.0185 C68.1332817,49.7071251 62.973,41.8753701 62.973,34.523 C62.973,27.5359651 65.3019767,21.7021067 69.96,17.02125 C74.6180233,12.3403933 80.3719658,10 87.222,10 C94.2547018,10 99.9858112,11.9750636 104.4155,15.92525 C108.845189,19.8754364 111.06,24.887303 111.06,30.961 C111.06,35.3906888 109.427433,39.8545608 106.16225,44.35275 C102.897067,48.8509392 98.867024,52.4471532 94.072,55.1415 C100.511032,60.7128612 104.974904,65.564896 107.46375,69.69775 C109.952596,73.830604 111.197,78.066145 111.197,82.4045 Z" id="e8" stroke="#000000" stroke-width="3"></path>
            <path d="M114.2935,44.8115 C114.2935,51.8442018 112.775099,58.9452975 109.73825,66.115 C106.701401,73.2847025 102.397361,79.9519692 96.826,86.117 C93.5836505,89.6790178 90.0673523,92.8756525 86.277,95.707 C82.4866477,98.5383475 78.5936033,100.855908 74.59775,102.65975 C70.6018967,104.463592 68.1016717,105.3655 67.097,105.3655 C66.6859979,105.3655 66.3206683,105.091503 66.001,104.5435 C65.6813317,103.995497 65.5215,103.447503 65.5215,102.8995 C65.5215,102.16883 65.7269979,101.735001 66.138,101.598 C76.2303838,98.7209856 84.4845513,91.9966362 90.90075,81.42475 C97.3169487,70.8528638 100.525,58.6485692 100.525,44.8115 C100.525,35.9977893 99.1093475,29.0451088 96.278,23.95325 C93.4466525,18.8613912 89.5650247,16.3155 84.633,16.3155 C79.7009753,16.3155 75.9106799,18.3133967 73.262,22.30925 C70.6133201,26.3051033 69.289,31.9791299 69.289,39.3315 C69.289,44.7201936 70.6019035,49.1269829 73.22775,52.552 C75.8535965,55.9770171 79.4269774,57.6895 83.948,57.6895 C86.2313447,57.6895 88.1493256,57.255671 89.702,56.388 L90.1815,56.251 C90.6838358,56.251 91.1747476,56.5249973 91.65425,57.073 C92.1337524,57.6210027 92.3735,58.1689973 92.3735,58.717 C92.3735,59.6303379 90.7066833,61.057407 87.373,62.99825 C84.0393167,64.939093 80.9796806,65.9095 78.194,65.9095 C72.120303,65.9095 66.9029385,63.4663578 62.54175,58.58 C58.1805615,53.6936422 56,47.8255342 56,40.9755 C56,33.0751272 58.8769712,26.2708619 64.631,20.5625 C70.3850288,14.8541381 77.4176251,12 85.729,12 C94.2230425,12 101.107224,15.0482195 106.38175,21.14475 C111.656276,27.2412805 114.2935,35.1301183 114.2935,44.8115 Z" id="e9" stroke="#000000" stroke-width="3"></path>
            <path d="M63.264,87.3075 C63.264,88.5861731 62.9443365,89.2255 62.305,89.2255 C60.3869904,89.2255 57.6013516,89.0885014 53.948,88.8145 C49.9749801,88.5404986 46.8696779,88.4035 44.632,88.4035 C42.3486553,88.4035 39.2205199,88.5404986 35.2475,88.8145 C31.6854822,89.0885014 28.9683427,89.2255 27.096,89.2255 C26.3653297,89.2255 26,88.5861731 26,87.3075 C26,86.5311628 26.1712483,86.0288345 26.51375,85.8005 C26.8562517,85.5721655 27.5298283,85.4123338 28.5345,85.321 C32.0965178,84.8643311 34.414078,84.2935034 35.48725,83.6085 C36.560422,82.9234966 37.3253311,81.8731737 37.782,80.4575 C38.238669,79.0418263 38.467,77.032513 38.467,74.4295 L38.467,42.7825 C38.467,39.9054856 38.1701696,37.7363406 37.5765,36.275 C36.9828304,34.8136594 36.0466731,33.8090027 34.768,33.261 C33.4893269,32.7129973 31.2973489,32.2563352 28.192,31.891 C27.2786621,31.7996662 26.6850014,31.6284179 26.411,31.37725 C26.1369986,31.1260821 26,30.6351703 26,29.9045 C26,28.6258269 26.3653297,27.9865 27.096,27.9865 C28.9683427,27.9865 31.6854822,28.1234986 35.2475,28.3975 C39.2205199,28.6715014 42.3486553,28.8085 44.632,28.8085 C46.8696779,28.8085 49.9749801,28.6715014 53.948,28.3975 C57.6013516,28.1234986 60.3869904,27.9865 62.305,27.9865 C62.9443365,27.9865 63.264,28.6258269 63.264,29.9045 C63.264,31.0918393 62.5561737,31.7539993 61.1405,31.891 C57.4414815,32.3020021 55.0325889,32.83858 53.91375,33.50075 C52.7949111,34.16292 51.9957524,35.2246594 51.51625,36.686 C51.0367476,38.1473406 50.797,40.179487 50.797,42.7825 L50.797,74.4295 C50.797,77.3521813 51.0824138,79.5327428 51.65325,80.97125 C52.2240862,82.4097572 53.1374104,83.4029973 54.39325,83.951 C55.6490896,84.4990027 57.7839849,84.9556648 60.798,85.321 C61.7570048,85.4123338 62.4077483,85.560749 62.75025,85.76625 C63.0927517,85.971751 63.264,86.4854959 63.264,87.3075 Z M144.0255,58.6745 C144.0255,67.9905466 140.863115,75.7538023 134.53825,81.9645 C128.213385,88.1751977 120.530045,91.2805 111.488,91.2805 C102.400288,91.2805 94.694115,88.1751977 88.36925,81.9645 C82.044385,75.7538023 78.882,67.9905466 78.882,58.6745 C78.882,49.3127865 82.044385,41.5266977 88.36925,35.316 C94.694115,29.1053023 102.400288,26 111.488,26 C120.530045,26 128.213385,29.1053023 134.53825,35.316 C140.863115,41.5266977 144.0255,49.3127865 144.0255,58.6745 Z" id="e10" stroke="#000000" stroke-width="3"></path>
        </g>
    </g>
</svg>