<?xml version="1.0" encoding="UTF-8"?>
<svg width="171px" height="117px" viewBox="0 0 171 117" version="1.1" xmlns="http://www.w3.org/2000/svg" xmlns:xlink="http://www.w3.org/1999/xlink">
    <!-- Generator: Sketch 52.6 (67491) - http://www.bohemiancoding.com/sketch -->
    <title>simple</title>
    <desc>Created with Sketch.</desc>
    <g id="Page-1" stroke="none" stroke-width="1" fill="none" fill-rule="evenodd">
        <g id="simple">
            <rect id="Rectangle" fill="#D8D8D8" x="0" y="0" width="171" height="117"></rect>
            <path d="M32,24.7641763 C41.0687766,24.7641763 46.7205688,13 54.2620898,13 C54.2620898,23.6131587 53.302136,51.3475567 53.302136,55.3821615 C84.2114319,34.2295622 139,-25.798763 139,55.3821615 C139,136.563086 94.9739993,76.0369854 53.302136,69.9368884 C53.302136,90.8825636 53.302136,99.8844306 53.302136,104" id="e10" stroke="#000000" stroke-width="13" stroke-linejoin="round"></path>
            <path d="M106.144921,46.3895603 C93.1582016,61.5959912 64,53.9114097 64,33.7561024 C64,7.41463252 107.883011,7.41463252 107.883011,33.7561024 C107.883011,60.0975723 78.6402067,99.0984666 78.6402067,103.23172" id="e9" stroke="#000000" stroke-width="13" stroke-linejoin="round"></path>
            <path d="M84.5625081,58.4900945 C96.9196161,55.4124377 105.591094,48.2995581 105.591094,36.3520675 C105.591094,12.8902685 65.9421649,10.4466546 64.0575836,37.6563634 C62.1730023,64.8660721 107.173002,52.532518 107.173002,79.7412563 C107.173002,106.949995 64.0575836,103.976287 64.0575836,79.1373057 C64.7914802,68.5314112 76.0201024,61.8039726 84.5625081,58.4900945 Z" id="e8" stroke="#000000" stroke-width="13" stroke-linejoin="round"></path>
            <path d="M66,34.5550933 L66,14 C79.0984996,14 92.4318329,14 106,14 C106,34.5550933 74.0282702,82.1167968 74.0282702,103" id="e7" stroke="#000000" stroke-width="13" stroke-linejoin="round"></path>
            <path d="M94.6633852,17 C82.6755432,36.6670429 73.9504684,52.9314244 68.4881607,65.7931445 C73.1215665,52.0347263 109.937136,58.1540318 104.75021,81.6313553 C99.5632835,105.108679 63.1424929,108.20627 66.1795775,78.2969227" id="e6" stroke="#000000" stroke-width="13" stroke-linejoin="round"></path>
            <path d="M108,18 L63.6123279,18 C63.6576479,32.6554339 63.6803079,45.4403786 63.6803079,56.3548342 C102.451319,43.8905581 102.451319,65.2405808 102.451319,85.0303904 C102.451319,104.8202 63,105.183877 63,83.1335069" id="e5" stroke="#000000" stroke-width="13" stroke-linejoin="round"></path>
            <path d="M99.300378,10 C76.4334593,56.3541964 65,81.0490841 65,84.0846631 C65,88.6380316 105.562133,82.1135611 105.562133,88.1339118 C105.562133,94.1542626 105.49365,83.4628275 105.562133,107" id="e4" stroke="#000000" stroke-width="13" stroke-linejoin="round"></path>
            <path d="M64.6934102,36.5774532 C64,8.78788796 105.882544,8.78788796 105.882544,38.7569134 C107,54.8119266 79.2821119,59.97334 86.0004908,59.97334 C92.7188697,59.97334 107,61.8678684 107,84.194346 C107,106.520824 64,107.918154 64,84.194346" id="e3" stroke="#000000" stroke-width="13" stroke-linejoin="round"></path>
            <path d="M61.3074528,37.2805502 C61.3074528,10.5612813 102.390839,10.5612813 102.390839,35.403048 C102.390839,60.2448147 53.3563454,99.964954 62.0281506,99.964954 C70.6999558,99.964954 102.354609,99.964954 109.169782,99.964954" id="e2" stroke="#000000" stroke-width="13" stroke-linejoin="round"></path>
            <path d="M74,23.5229223 C78.9979868,21.67806 82.0522282,13 90.8622105,13 C99.6721928,13 94.9433152,98.955947 94.9433152,103" id="e1" stroke="#000000" stroke-width="13" stroke-linejoin="round"></path>
            <path d="M65,73.552443 C65,69.2054338 65,55.297868 65,32.7954721 C65,10.2930763 106,13.2276602 106,32.7954721 C106,52.3632841 106,57.0841706 106,81.0491555 C106,105.01414 65,107.922075 65,80.0874209" id="e0" stroke="#000000" stroke-width="13" stroke-linejoin="round"></path>
        </g>
    </g>
</svg>